<svg width="211" height="45" viewBox="0 0 211 45" fill="none" xmlns="http://www.w3.org/2000/svg">
<path d="M45.1826 14.0493C46.0321 13.6177 47.0192 13.4368 48.0331 13.5909C49.2782 13.7802 50.3347 14.4395 51.0523 15.3601C51.1722 15.5139 51.2837 15.6742 51.3839 15.8416C51.9188 16.7357 52.162 17.8107 52.0076 18.92C52.0049 18.9397 52.0029 18.9594 51.9999 18.9791C51.9736 19.1518 51.945 19.3235 51.9159 19.494C51.8175 20.0711 51.7022 20.6352 51.5724 21.187C51.4454 21.7263 51.3039 22.2535 51.1483 22.7686C51.0761 23.0077 51.0011 23.2442 50.9229 23.478C50.818 23.792 50.7077 24.1013 50.5922 24.4059C50.5122 24.617 50.4295 24.8257 50.3446 25.0322C50.1806 25.4312 50.0081 25.822 49.8263 26.2043C49.5946 26.6915 49.3485 27.1648 49.0895 27.6248C49.0003 27.783 48.9092 27.9393 48.817 28.0943C48.6777 28.3284 48.5366 28.5599 48.3903 28.7866C47.2145 30.6095 45.818 32.1943 44.259 33.5417C44.0711 33.704 43.88 33.8617 43.6875 34.0172C41.383 35.8782 38.7549 37.2447 35.974 38.116C35.7747 38.1784 35.575 38.2394 35.3742 38.2968C33.4321 38.8516 31.423 39.1685 29.4043 39.2478C29.2344 39.2544 29.0645 39.2599 28.8945 39.2632C17.9552 39.4758 6.87655 32.714 4.78834 18.9791C4.70152 18.4072 4.72107 17.8436 4.83204 17.3084C4.8515 17.2146 4.87472 17.1219 4.89972 17.03C5.0066 16.6368 5.1627 16.2615 5.36324 15.9127C5.39425 15.8588 5.42698 15.806 5.46005 15.7534C5.56245 15.5904 5.67373 15.4332 5.79505 15.2839C5.84283 15.2251 5.89185 15.1673 5.94242 15.1108C6.01767 15.0267 6.09683 14.9461 6.17803 14.8675C6.54386 14.5132 6.96811 14.2158 7.4392 13.9927C7.63548 13.8997 7.83945 13.8188 8.05093 13.7528C8.27776 13.682 8.51306 13.6277 8.7552 13.5909C9.84257 13.4256 10.8992 13.6454 11.7882 14.1469C11.9726 14.2511 12.1498 14.3672 12.3185 14.4948C12.5097 14.6392 12.6898 14.7982 12.8574 14.9703C13.0077 15.1246 13.1477 15.2894 13.2764 15.4638C13.2808 15.4697 13.2849 15.4758 13.2892 15.4818C13.3537 15.5701 13.4158 15.6603 13.4743 15.7534C13.7107 19.897 15.6413 23.5871 18.5841 26.1417C18.675 26.2241 18.7671 26.3047 18.86 26.3842C18.8835 26.4044 18.9074 26.4242 18.9311 26.4442C19.5818 26.9941 20.278 27.4764 21.0088 27.8913C21.0271 27.9017 21.0452 27.9126 21.0636 27.923C21.3575 28.0881 21.6573 28.2414 21.9615 28.3848C22.1146 28.457 22.2687 28.5271 22.4241 28.5938C22.4613 28.6098 22.4991 28.6244 22.5364 28.6401C22.6718 28.6968 22.8081 28.7512 22.9451 28.8037C22.9814 28.8177 23.0175 28.8321 23.0539 28.8457C23.2103 28.9043 23.3676 28.9604 23.5259 29.0136C23.5772 29.0309 23.6287 29.0475 23.6802 29.0642C23.8323 29.1135 23.9849 29.1612 24.1385 29.2056C24.1855 29.2191 24.2328 29.231 24.2799 29.2441C24.4086 29.2799 24.5376 29.3146 24.6672 29.3469C24.72 29.3601 24.7727 29.3737 24.8257 29.3863C24.979 29.4229 25.133 29.4566 25.2875 29.4883C25.3476 29.5006 25.408 29.5118 25.4682 29.5234C25.6033 29.5495 25.7386 29.5738 25.8744 29.5962C25.9443 29.6078 26.0142 29.6191 26.0843 29.6297C26.2012 29.6473 26.3183 29.6636 26.4355 29.6785C26.5086 29.6878 26.5817 29.6968 26.6549 29.705C26.814 29.723 26.9733 29.7392 27.133 29.7522C27.1698 29.7552 27.2066 29.7571 27.2435 29.7599C27.3927 29.771 27.5421 29.7797 27.6916 29.7864C27.7461 29.7889 27.8006 29.7914 27.8552 29.7933C28.0057 29.7985 28.1562 29.8019 28.3067 29.8027C28.365 29.803 28.4233 29.803 28.4815 29.8027C28.6401 29.8018 28.7986 29.799 28.957 29.7933C29.0036 29.7916 29.0501 29.7886 29.0967 29.7864C29.245 29.7797 29.3932 29.7709 29.5413 29.7599C29.5733 29.7575 29.6054 29.7565 29.6373 29.7539C29.7981 29.741 29.9585 29.7247 30.1188 29.7068C30.186 29.6992 30.2531 29.6912 30.3201 29.6828C30.4601 29.6652 30.5997 29.6459 30.7391 29.6245C30.8138 29.6131 30.8882 29.6002 30.9627 29.5877C31.0792 29.568 31.1955 29.5474 31.3114 29.5251C31.3643 29.515 31.4172 29.505 31.4699 29.4943C31.6207 29.4636 31.7708 29.4301 31.9206 29.3949C31.9904 29.3785 32.0601 29.3618 32.1297 29.3443C32.2655 29.3103 32.4009 29.2751 32.5358 29.2373C32.5951 29.2206 32.654 29.2024 32.7131 29.185C32.8364 29.1488 32.9592 29.1113 33.0815 29.0719C33.1381 29.0537 33.1948 29.036 33.2512 29.0171C33.4009 28.9668 33.5495 28.9136 33.6975 28.8586C33.7513 28.8386 33.805 28.8184 33.8586 28.7977C33.9862 28.7486 34.1128 28.6971 34.239 28.6444C34.2965 28.6203 34.354 28.5963 34.4112 28.5715C34.5352 28.5178 34.658 28.4617 34.7805 28.4045C36.7882 27.4667 38.5907 26.0591 39.9803 24.1772C41.8076 21.8896 42.9756 19.0536 43.194 15.9539C43.2053 15.9336 43.2175 15.9139 43.2291 15.8939C43.3018 15.7688 43.3798 15.6477 43.463 15.5306C43.4771 15.5108 43.4915 15.4911 43.5059 15.4715C43.6704 15.2474 43.8538 15.0392 44.0533 14.8486C44.0631 14.8393 44.0726 14.8296 44.0825 14.8204C44.4103 14.5126 44.7813 14.2533 45.1826 14.0493Z" fill="#3D00CB"/>
<path d="M18.1787 14.8917C18.1787 20.5044 22.7286 25.0544 28.3413 25.0544C33.9539 25.0544 38.5039 20.5044 38.5039 14.8917C38.5039 9.27908 33.9539 4.72913 28.3413 4.72913C22.7286 4.72912 18.1787 9.27908 18.1787 14.8917Z" fill="#AE96FF"/>
<path fill-rule="evenodd" clip-rule="evenodd" d="M28.3402 0C34.9055 0.000183615 40.4784 4.24949 42.4598 10.1476C44.2811 9.05621 46.4795 8.56834 48.7425 8.91214C53.9094 9.69789 57.4623 14.524 56.677 19.6912C51.749 52.1028 5.03673 52.1031 0.10867 19.6912C-0.676368 14.5239 2.87616 9.69799 8.04238 8.91214C10.2693 8.57386 12.433 9.04297 14.2368 10.0979C16.2325 4.22552 21.7932 0.000178331 28.3402 0ZM48.0322 13.5901C46.0297 13.2859 44.1302 14.2854 43.194 15.9531C42.9746 19.0687 41.7962 21.9188 39.9528 24.2124C34.945 30.9478 24.6371 31.5981 18.6064 26.1624C15.6503 23.607 13.7105 19.9081 13.4735 15.7535C12.5016 14.2067 10.6754 13.2985 8.75436 13.5901C6.17111 13.9831 4.3952 16.3959 4.7875 18.9792C8.90027 46.0304 47.8863 46.0303 51.9991 18.9792C52.3913 16.3961 50.6152 13.9832 48.0322 13.5901ZM28.3402 4.72938C28.1211 4.72939 27.9038 4.738 27.6882 4.75166C27.6042 4.75698 27.5205 4.76316 27.4371 4.77051C27.3557 4.77768 27.2746 4.78542 27.1938 4.7945C27.1092 4.804 27.025 4.81548 26.9411 4.82705C26.8545 4.83898 26.7682 4.85151 26.6823 4.86561C26.6011 4.87893 26.5203 4.89321 26.4398 4.90845C26.3615 4.92326 26.2836 4.93897 26.2059 4.95557C26.125 4.97288 26.0446 4.99203 25.9643 5.01126C25.8761 5.03241 25.7878 5.05293 25.7004 5.07637C25.6358 5.09373 25.5718 5.11347 25.5077 5.13206C25.4187 5.15784 25.33 5.18363 25.2421 5.21174C25.1639 5.23677 25.0864 5.26371 25.009 5.29057C24.9328 5.31701 24.8565 5.34291 24.7811 5.3711C24.7101 5.39769 24.6398 5.42609 24.5695 5.45421C24.486 5.4876 24.4026 5.52065 24.3202 5.55617C24.2635 5.58064 24.2076 5.60695 24.1514 5.63242C24.0565 5.6754 23.9619 5.71858 23.8687 5.76436C23.8318 5.78244 23.7956 5.80154 23.759 5.82005C23.6509 5.87474 23.5435 5.93044 23.4377 5.98884C23.4062 6.00622 23.3756 6.02511 23.3443 6.04281C23.2413 6.10111 23.1383 6.15927 23.0376 6.22102C22.9861 6.25259 22.936 6.28624 22.8851 6.31869C21.6159 7.128 20.5388 8.21044 19.7365 9.48447C19.7231 9.50565 19.7094 9.52658 19.6962 9.54787C19.5391 9.80141 19.3931 10.0624 19.2584 10.3301C19.2505 10.3458 19.2422 10.3614 19.2344 10.3772C19.1708 10.5052 19.111 10.6352 19.0528 10.7662C19.0465 10.7803 19.0393 10.794 19.033 10.8082C18.9757 10.9386 18.9222 11.0708 18.8703 11.204C18.8634 11.2217 18.8565 11.2394 18.8497 11.2571C18.7982 11.3914 18.7499 11.5271 18.704 11.6641C18.6993 11.6781 18.6941 11.692 18.6895 11.7061C18.6436 11.8453 18.601 11.9858 18.561 12.1276C18.5568 12.1422 18.5522 12.1567 18.5481 12.1713C18.5088 12.3131 18.4734 12.4563 18.4402 12.6005C18.4367 12.6157 18.4333 12.6308 18.4299 12.646C18.3987 12.7841 18.3697 12.923 18.3442 13.0632C18.3396 13.0886 18.3349 13.114 18.3305 13.1395C18.3051 13.2855 18.2828 13.4326 18.2637 13.5807C18.2633 13.5838 18.2641 13.587 18.2637 13.5901C18.2441 13.7434 18.2275 13.8975 18.2148 14.0528C18.213 14.0747 18.2113 14.0967 18.2097 14.1187C18.1905 14.3739 18.178 14.6315 18.178 14.8916C18.178 18.8033 20.3892 22.1966 23.6288 23.8954C23.6391 23.9009 23.6493 23.907 23.6596 23.9125C23.6947 23.9308 23.7305 23.9478 23.7659 23.9656C23.8803 24.0235 23.9959 24.0791 24.1128 24.1327C24.1544 24.1518 24.1961 24.1707 24.2379 24.1892C24.3105 24.2213 24.3829 24.2539 24.4564 24.2843C24.5589 24.3268 24.6625 24.3668 24.7666 24.406C24.8271 24.4287 24.888 24.4504 24.9491 24.472C25.023 24.4982 25.0972 24.5237 25.1718 24.5482C25.2663 24.5792 25.3615 24.6082 25.4571 24.6365C25.5407 24.6612 25.6246 24.685 25.709 24.7076C25.757 24.7204 25.8047 24.734 25.853 24.7461C25.9754 24.777 26.0989 24.8054 26.2231 24.8318C26.2763 24.8431 26.3298 24.8531 26.3833 24.8635C26.5136 24.889 26.6445 24.9133 26.7766 24.9338C26.7911 24.936 26.8057 24.9384 26.8202 24.9406C26.9562 24.9611 27.093 24.9779 27.2306 24.9929C27.2677 24.9969 27.3048 25.0013 27.342 25.0049C27.4941 25.0198 27.6472 25.0311 27.8013 25.0392C27.8454 25.0415 27.8897 25.0434 27.9341 25.0452C27.9697 25.0466 28.0054 25.0484 28.0411 25.0494C28.0534 25.0498 28.0657 25.0508 28.078 25.0512L28.3402 25.0546L28.6032 25.0512L28.6058 25.0503C28.7277 25.0472 28.849 25.0397 28.9699 25.0323C29.0596 25.0268 29.149 25.0204 29.2381 25.0126C29.3252 25.005 29.412 24.9967 29.4985 24.9869C29.5768 24.978 29.6547 24.9676 29.7324 24.9569C29.8196 24.945 29.9064 24.9325 29.9929 24.9184C30.0678 24.9061 30.1422 24.892 30.2165 24.8781C30.3066 24.8613 30.3963 24.8441 30.4855 24.825C30.5613 24.8087 30.6365 24.7907 30.7117 24.7727C30.794 24.753 30.8761 24.7335 30.9576 24.7119C31.0286 24.693 31.0989 24.6723 31.1692 24.6519C31.2625 24.6249 31.3556 24.5983 31.4477 24.5688C31.508 24.5494 31.5677 24.5284 31.6276 24.508C31.7157 24.4779 31.8036 24.4479 31.8906 24.4154C31.9589 24.3899 32.0261 24.3618 32.0937 24.3349C32.182 24.2998 32.2705 24.2653 32.3576 24.2278C32.4025 24.2084 32.4466 24.187 32.4912 24.167C32.5931 24.1213 32.6945 24.0753 32.7945 24.0265C32.8363 24.006 32.8773 23.984 32.9188 23.9631C33.0206 23.9116 33.1222 23.8602 33.222 23.8054C33.2434 23.7937 33.2642 23.7813 33.2854 23.7694C36.3974 22.0323 38.5032 18.7086 38.5032 14.8916C38.5032 14.7026 38.4962 14.515 38.4861 14.3287C38.4837 14.286 38.4795 14.2435 38.4766 14.201C38.4563 13.8976 38.4245 13.5978 38.3781 13.3022C38.3739 13.2753 38.368 13.2486 38.3635 13.2217C38.3133 12.9177 38.2508 12.6181 38.1742 12.3238C38.1628 12.2802 38.1501 12.237 38.1382 12.1936C37.2654 9.01724 34.8924 6.46241 31.8264 5.34283C31.8018 5.33385 31.7765 5.32678 31.7518 5.31798C31.3099 5.16052 30.8547 5.03063 30.387 4.93501C30.3464 4.92671 30.3052 4.9214 30.2645 4.91359C29.7243 4.81004 29.1693 4.74715 28.6023 4.73281L28.3402 4.72938Z" fill="white"/>
<path d="M66.7864 44.0001V0.0305176H85.2312C88.6676 0.0305176 91.69 0.527348 94.2984 1.52101C96.9068 2.47327 98.9562 4.08797 100.447 6.36511C101.937 8.60085 102.682 11.6853 102.682 15.6186C102.682 19.2206 101.896 22.2223 100.322 24.6237C98.7492 26.9836 96.6169 28.7432 93.9258 29.9025C91.2346 31.0618 88.1915 31.6414 84.7965 31.6414H78.0272V44.0001H66.7864ZM78.0272 21.6427H84.7965C86.9494 21.6427 88.6262 21.1251 89.8269 20.0901C91.0276 19.055 91.6279 17.5852 91.6279 15.6807C91.6279 13.9832 91.0897 12.6997 90.0132 11.8303C88.9782 10.9194 87.2186 10.464 84.7344 10.464H78.0272V21.6427Z" fill="white"/>
<path d="M120.946 44.4969C117.592 44.4969 114.653 43.8345 112.127 42.5096C109.643 41.1433 107.697 39.2181 106.289 36.7339C104.923 34.2498 104.24 31.2895 104.24 27.8531C104.24 24.4166 104.944 21.415 106.351 18.848C107.759 16.2396 109.726 14.2109 112.251 12.7618C114.777 11.3127 117.716 10.5882 121.07 10.5882C123.471 10.5882 125.624 10.9608 127.529 11.706C129.433 12.4513 131.069 13.5278 132.435 14.9354C133.801 16.3431 134.836 18.0406 135.54 20.028C136.285 22.0153 136.658 24.251 136.658 26.7352C136.658 27.439 136.617 28.1222 136.534 28.7846C136.492 29.4057 136.389 30.0681 136.223 30.7719H115.108C115.191 31.5586 115.439 32.3038 115.853 33.0077C116.309 33.7115 116.93 34.2705 117.716 34.6845C118.503 35.0985 119.497 35.3055 120.697 35.3055C121.691 35.3055 122.54 35.202 123.244 34.995C123.989 34.7466 124.589 34.4361 125.045 34.0634C125.5 33.6908 125.79 33.3182 125.914 32.9456H136.658C136.078 35.6367 135.002 37.8518 133.429 39.5907C131.897 41.2882 130.034 42.5303 127.839 43.3169C125.686 44.1036 123.389 44.4969 120.946 44.4969ZM115.294 23.63H126.349C126.349 23.009 126.163 22.3672 125.79 21.7048C125.459 21.0009 124.879 20.4213 124.051 19.9659C123.264 19.5104 122.209 19.2827 120.884 19.2827C119.6 19.2827 118.544 19.5104 117.716 19.9659C116.888 20.4213 116.267 21.0009 115.853 21.7048C115.481 22.3672 115.294 23.009 115.294 23.63Z" fill="white"/>
<path d="M150.574 44.4969C149.042 44.4969 147.593 44.2899 146.226 43.8759C144.86 43.4618 143.639 42.8408 142.562 42.0127C141.527 41.1847 140.699 40.1496 140.078 38.9075C139.457 37.6655 139.147 36.1957 139.147 34.4982C139.147 32.014 139.664 30.0681 140.699 28.6604C141.776 27.2527 143.204 26.2177 144.984 25.5552C146.806 24.8928 148.855 24.4787 151.133 24.3131C153.451 24.1061 155.852 24.0026 158.337 24.0026H159.827C159.827 23.216 159.641 22.5121 159.268 21.8911C158.896 21.27 158.357 20.7732 157.654 20.4006C156.991 20.028 156.163 19.8417 155.169 19.8417C154.466 19.8417 153.782 19.9452 153.12 20.1522C152.457 20.3592 151.899 20.649 151.443 21.0216C151.029 21.3528 150.781 21.7669 150.698 22.2637H139.768C140.016 20.235 140.616 18.4961 141.569 17.047C142.521 15.5565 143.722 14.3558 145.171 13.445C146.62 12.4927 148.234 11.7889 150.015 11.3334C151.836 10.878 153.72 10.6503 155.666 10.6503C160.469 10.6503 164.092 11.9959 166.534 14.687C169.019 17.3368 170.261 21.2493 170.261 26.4247V44.0001H160.138V39.7149C159.061 41.3296 157.84 42.4682 156.474 43.1306C155.149 43.793 153.927 44.1864 152.809 44.3106C151.733 44.4348 150.988 44.4969 150.574 44.4969ZM153.555 36.1129C154.59 36.1129 155.583 35.8645 156.536 35.3676C157.529 34.8294 158.337 34.1669 158.958 33.3803C159.62 32.5936 159.951 31.807 159.951 31.0204V30.7719H153.803C153.306 30.7719 152.83 30.834 152.375 30.9582C151.919 31.0411 151.505 31.186 151.133 31.393C150.801 31.6 150.532 31.8691 150.325 32.2003C150.118 32.5315 150.015 32.9456 150.015 33.4424C150.015 34.022 150.16 34.5189 150.449 34.9329C150.781 35.3055 151.215 35.5953 151.754 35.8024C152.292 36.0094 152.892 36.1129 153.555 36.1129Z" fill="white"/>
<path d="M175.047 44.0001V11.2713H184.673L185.418 14.3765C186.246 13.1758 187.157 12.3064 188.151 11.7681C189.145 11.2299 190.138 10.8987 191.132 10.7745C192.125 10.6503 193.036 10.5882 193.864 10.5882C194.568 10.5882 195.21 10.6089 195.79 10.6503C196.369 10.6503 196.742 10.671 196.908 10.7124V21.3321H194.796C193.264 21.3321 191.815 21.5392 190.449 21.9532C189.124 22.3258 188.047 23.0711 187.219 24.1889C186.433 25.2654 186.039 26.9008 186.039 29.0951V44.0001H175.047Z" fill="white"/>
<path d="M199.277 44.0001V0.0305176H210.269V44.0001H199.277Z" fill="white"/>
</svg>
