<svg width="53" height="41" viewBox="0 0 53 41" fill="none" xmlns="http://www.w3.org/2000/svg">
<path fill-rule="evenodd" clip-rule="evenodd" d="M26.5493 0C20.4617 0.000187799 15.2925 3.92933 13.437 9.38965C11.7595 8.40853 9.74823 7.97332 7.67727 8.28808L7.23098 8.36816C2.81715 9.27008 -0.2072 13.3785 0.243678 17.8613L0.300319 18.3105C4.84711 48.2117 47.6391 48.4453 52.7837 19.0117L52.899 18.3105C53.6293 13.5056 50.3252 9.0187 45.521 8.28809C43.4165 7.96828 41.3727 8.4215 39.6792 9.43652C37.8375 3.95163 32.6545 0.000105046 26.5493 0ZM8.33841 12.6387C10.1255 12.3671 11.8237 13.2113 12.7271 14.6504C12.9484 18.5178 14.7569 21.9591 17.5113 24.335C23.1042 29.3645 32.6368 28.7748 37.3052 22.5664C39.0434 20.4252 40.1549 17.7553 40.3609 14.835C41.2312 13.2841 42.9977 12.3557 44.8599 12.6387C47.2621 13.004 48.9135 15.2472 48.5484 17.6494C44.7534 42.6045 9.03938 42.7996 4.74563 18.2344L4.64993 17.6494C4.29618 15.3221 5.83503 13.1436 8.11575 12.6777L8.33841 12.6387ZM26.5493 4.39746C26.6303 4.39746 26.711 4.40129 26.7915 4.40332C27.2599 4.41514 27.7195 4.46049 28.1685 4.53809C28.5004 4.59543 28.826 4.67071 29.145 4.76172C29.3192 4.81141 29.4917 4.86455 29.6616 4.92383C29.7062 4.93937 29.7512 4.95354 29.7954 4.96973C30.0072 5.04719 30.2142 5.13469 30.4185 5.22656C31.0479 5.50955 31.6418 5.85692 32.189 6.26465C32.2312 6.29613 32.2723 6.32916 32.314 6.36133C32.6307 6.60566 32.9323 6.86857 33.2154 7.15039L33.23 7.16504C33.4739 7.40896 33.7032 7.66723 33.9195 7.93652C34.0472 8.09567 34.1692 8.2594 34.2866 8.42676C34.4606 8.6746 34.623 8.93079 34.773 9.19531C34.7975 9.23857 34.8243 9.28054 34.8482 9.32422C34.9608 9.53052 35.0633 9.74275 35.1607 9.95801C35.1905 10.0241 35.2221 10.0894 35.2505 10.1563C35.2613 10.1817 35.2702 10.2079 35.2808 10.2334C35.3279 10.3471 35.3748 10.4612 35.4175 10.5771C35.4455 10.6532 35.4695 10.7307 35.4956 10.8076C35.5195 10.8778 35.5447 10.9476 35.5669 11.0186C35.5923 11.0996 35.614 11.1818 35.6372 11.2637C35.6556 11.3284 35.6759 11.3927 35.6929 11.458C35.7145 11.5408 35.7331 11.6244 35.7525 11.708C35.7691 11.7798 35.7873 11.8514 35.8023 11.9238C35.8568 12.1875 35.8982 12.4554 35.9302 12.7266C35.9348 12.7653 35.9407 12.8039 35.9449 12.8428C35.9699 13.0802 35.9836 13.3202 35.9907 13.5625C35.9931 13.6417 35.9972 13.7211 35.9976 13.8008L35.9966 13.8027C35.9967 13.8174 35.9976 13.832 35.9976 13.8467C35.9976 16.4561 34.94 18.8183 33.23 20.5283L33.2095 20.5488C33.1876 20.5706 33.1642 20.5908 33.1421 20.6123C32.7351 21.009 32.2939 21.3708 31.8208 21.6895C31.7954 21.7065 31.7692 21.7224 31.7437 21.7393C30.8847 22.3058 29.9288 22.7372 28.9048 23C28.8738 23.008 28.8422 23.0138 28.8111 23.0215C28.0899 23.1987 27.3367 23.2939 26.5611 23.2949C26.5572 23.2949 26.5532 23.2959 26.5493 23.2959L26.5474 23.2949C26.4103 23.2949 26.2739 23.291 26.1382 23.2852C26.0978 23.2834 26.0574 23.2825 26.0171 23.2803C25.897 23.2736 25.7776 23.2641 25.6587 23.2529C25.6065 23.2481 25.5544 23.243 25.5025 23.2373C25.3961 23.2255 25.2904 23.2116 25.1851 23.1963C25.1283 23.1881 25.0717 23.1791 25.0152 23.1699C24.9665 23.162 24.9181 23.1532 24.8697 23.1445C24.7388 23.1211 24.6089 23.0952 24.48 23.0664C24.4431 23.0581 24.4064 23.0497 24.3697 23.041C24.2373 23.0098 24.1063 22.9752 23.9761 22.9385C23.9429 22.9291 23.9096 22.9199 23.8765 22.9102C23.744 22.8711 23.613 22.8288 23.4829 22.7842C23.455 22.7746 23.4268 22.7657 23.399 22.7559C19.7292 21.4584 17.0991 17.9608 17.0991 13.8467C17.0992 11.1941 18.1935 8.79824 19.9536 7.08203C19.9665 7.06949 19.9798 7.05739 19.9927 7.04492C20.0851 6.95586 20.179 6.86848 20.2749 6.7832C20.2934 6.7668 20.312 6.75064 20.3306 6.73437C20.5132 6.5746 20.7004 6.41994 20.895 6.27441L20.9839 6.21094C20.9935 6.20391 21.0036 6.19742 21.0132 6.19043C21.1169 6.1153 21.2218 6.04166 21.3286 5.9707C21.362 5.94851 21.3965 5.92802 21.4302 5.90625C21.5238 5.84581 21.6176 5.7857 21.7134 5.72852C21.7396 5.71288 21.7662 5.698 21.7925 5.68262C21.8975 5.62131 22.0033 5.56123 22.1109 5.50391C22.1303 5.49356 22.15 5.48385 22.1695 5.47363C22.2801 5.41565 22.3913 5.35836 22.5044 5.30469C22.5385 5.28851 22.5736 5.27457 22.6079 5.25879C22.7133 5.21035 22.8189 5.16182 22.9263 5.11719C22.9456 5.10916 22.9655 5.10263 22.9849 5.09473C23.1049 5.0458 23.2257 4.99818 23.3482 4.9541C23.3731 4.94514 23.3984 4.93747 23.4234 4.92871C23.5407 4.8876 23.6585 4.84711 23.7779 4.81055C23.8283 4.7951 23.8794 4.7822 23.9302 4.76758C24.0223 4.74108 24.1144 4.71418 24.2075 4.69043C24.2822 4.67139 24.3578 4.65592 24.4331 4.63867C24.5114 4.62076 24.5894 4.60092 24.6685 4.58496C24.7048 4.57763 24.7414 4.57234 24.7779 4.56543C25.045 4.51477 25.3157 4.47297 25.5904 4.44531C25.9057 4.41351 26.2256 4.39748 26.5493 4.39746Z" fill="#3D00CB"/>
</svg>
