<svg width="66" height="51" viewBox="0 0 66 51" fill="none" xmlns="http://www.w3.org/2000/svg">
<mask id="path-1-outside-1_282_8583" maskUnits="userSpaceOnUse" x="-0.0633576" y="10.1283" width="66" height="41" fill="black">
<rect fill="white" x="-0.0633576" y="10.1283" width="66" height="41"/>
<path d="M16.7258 20.7118C16.278 17.7669 13.5281 15.7427 10.5833 16.1903C7.63845 16.6381 5.61416 19.388 6.06177 22.3329C10.7129 52.9255 54.4947 53.1644 59.7571 23.0497L59.8743 22.3329L59.9094 22.0575C60.1949 19.2184 58.2057 16.624 55.3528 16.1903C52.5 15.7567 49.8302 17.6427 49.259 20.4383L49.2102 20.7118L49.1389 21.1444C45.9622 39.3227 19.5335 39.1785 16.7258 20.7118Z"/>
</mask>
<path d="M16.7258 20.7118C16.278 17.7669 13.5281 15.7427 10.5833 16.1903C7.63845 16.6381 5.61416 19.388 6.06177 22.3329C10.7129 52.9255 54.4947 53.1644 59.7571 23.0497L59.8743 22.3329L59.9094 22.0575C60.1949 19.2184 58.2057 16.624 55.3528 16.1903C52.5 15.7567 49.8302 17.6427 49.259 20.4383L49.2102 20.7118L49.1389 21.1444C45.9622 39.3227 19.5335 39.1785 16.7258 20.7118Z" fill="#3D00CB"/>
<path d="M16.7258 20.7118L22.0581 19.9009L22.0581 19.901L16.7258 20.7118ZM10.5833 16.1903L9.77238 10.858L9.77278 10.8579L10.5833 16.1903ZM6.06177 22.3329L0.729438 23.1436L0.729408 23.1434L6.06177 22.3329ZM59.7571 23.0497L65.08 23.9199C65.0768 23.9393 65.0736 23.9587 65.0702 23.9781L59.7571 23.0497ZM59.8743 22.3329L65.2244 23.0159C65.2165 23.0784 65.2074 23.1409 65.1972 23.2031L59.8743 22.3329ZM59.9094 22.0575L65.276 22.597C65.2712 22.6449 65.2657 22.6927 65.2596 22.7405L59.9094 22.0575ZM55.3528 16.1903L56.1632 10.8579L56.1635 10.858L55.3528 16.1903ZM49.259 20.4383L43.9494 19.4902C43.9573 19.4462 43.9657 19.4024 43.9746 19.3586L49.259 20.4383ZM49.2102 20.7118L43.8884 19.8348C43.8923 19.8111 43.8964 19.7873 43.9006 19.7636L49.2102 20.7118ZM49.1389 21.1444L54.4607 22.0213C54.4579 22.0385 54.455 22.0557 54.452 22.0729L49.1389 21.1444ZM16.7258 20.7118L11.3935 21.5226L11.3937 21.5226L10.5833 16.1903L9.77278 10.8579C15.6626 9.96272 21.1626 14.0114 22.0581 19.9009L16.7258 20.7118ZM10.5833 16.1903L11.3941 21.5226L11.3941 21.5224L6.06177 22.3329L0.729408 23.1434C-0.165836 17.2535 3.88302 11.7536 9.77238 10.858L10.5833 16.1903ZM6.06177 22.3329L11.3941 21.5222C15.1182 46.017 50.2241 46.2704 54.444 22.1212L59.7571 23.0497L65.0702 23.9781C58.7654 60.0584 6.30768 59.834 0.729438 23.1436L6.06177 22.3329ZM59.7571 23.0497L54.4341 22.1794L54.5513 21.4626L59.8743 22.3329L65.1972 23.2031L65.08 23.9199L59.7571 23.0497ZM59.8743 22.3329L54.5241 21.6499L54.5592 21.3745L59.9094 22.0575L65.2596 22.7405L65.2244 23.0159L59.8743 22.3329ZM59.9094 22.0575L54.5429 21.5179C54.5432 21.5146 54.5429 21.5152 54.5432 21.5184C54.5435 21.5212 54.544 21.5238 54.5446 21.5257C54.545 21.5273 54.5453 21.5275 54.5448 21.5265C54.5442 21.5255 54.5433 21.5239 54.5419 21.5221C54.5387 21.518 54.5375 21.5182 54.5414 21.5205C54.5435 21.5218 54.546 21.5229 54.548 21.5236C54.5503 21.5245 54.5489 21.5237 54.5421 21.5226L55.3528 16.1903L56.1635 10.858C61.8703 11.7256 65.8474 16.9138 65.276 22.597L59.9094 22.0575ZM55.3528 16.1903L54.5424 21.5227C54.5355 21.5216 54.534 21.522 54.5365 21.5219C54.5387 21.5218 54.5414 21.5214 54.5439 21.5208C54.5484 21.5197 54.5473 21.5192 54.5432 21.5221C54.5414 21.5233 54.54 21.5246 54.5392 21.5254C54.5384 21.5262 54.5387 21.526 54.5397 21.5246C54.5407 21.5231 54.542 21.5208 54.5431 21.5182C54.5443 21.5153 54.5441 21.5147 54.5435 21.518L49.259 20.4383L43.9746 19.3586C45.1179 13.7631 50.456 9.99055 56.1632 10.8579L55.3528 16.1903ZM49.259 20.4383L54.5686 21.3865L54.5198 21.6599L49.2102 20.7118L43.9006 19.7636L43.9494 19.4902L49.259 20.4383ZM49.2102 20.7118L54.532 21.5887L54.4607 22.0213L49.1389 21.1444L43.8171 20.2674L43.8884 19.8348L49.2102 20.7118ZM49.1389 21.1444L54.452 22.0729C50.2328 46.2166 15.1284 46.0871 11.3935 21.5225L16.7258 20.7118L22.0581 19.901C23.9387 32.2699 41.6916 32.4289 43.8258 20.2159L49.1389 21.1444Z" fill="white" mask="url(#path-1-outside-1_282_8583)"/>
<circle cx="11.5835" cy="11.5835" r="14.2786" transform="matrix(-1 -8.74228e-08 -8.74228e-08 1 44.4916 6.08972)" fill="#AE96FF" stroke="white" stroke-width="5.39019"/>
</svg>
